<svg width="14" height="13" viewBox="0 0 14 13" fill="none" xmlns="http://www.w3.org/2000/svg">
<path d="M13.5997 1.77721C13.3937 1.58563 13.0595 1.5853 12.8536 1.77639L6.52371 7.63863L4.2399 5.33537C4.04256 5.13646 3.70891 5.12356 3.49435 5.30678C3.27994 5.49003 3.26622 5.79999 3.46356 5.99908L6.11935 8.67731C6.21661 8.77547 6.35273 8.83247 6.49625 8.83524C6.50011 8.83539 6.50383 8.83539 6.50752 8.83539C6.647 8.83539 6.78117 8.78395 6.88002 8.69249L13.5986 2.47014C13.8051 2.27908 13.8055 1.96878 13.5997 1.77721Z" fill="#0277BD"/>
<path d="M13.4723 6.01004C13.1809 6.01004 12.9447 6.22936 12.9447 6.5C12.9447 9.5439 10.2781 12.0201 7 12.0201C3.72214 12.0201 1.05528 9.5439 1.05528 6.5C1.05528 3.45627 3.72214 0.9799 7 0.9799C7.29143 0.9799 7.52765 0.760576 7.52765 0.489963C7.52765 0.219324 7.29143 0 7 0C3.14016 0 0 2.91586 0 6.5C0 10.084 3.14016 13 7 13C10.8597 13 14 10.084 14 6.5C14 6.22939 13.7638 6.01004 13.4723 6.01004Z" fill="#0277BD"/>
</svg>
