<svg width="21" height="21" viewBox="0 0 21 21" fill="none" xmlns="http://www.w3.org/2000/svg">
<path d="M9.9967 4.85535C7.15891 4.85535 4.86001 7.15421 4.86001 9.98946C4.86001 12.8258 7.15891 15.1247 9.9967 15.1247C12.8323 15.1247 15.1334 12.8258 15.1334 9.98946C15.1334 7.15421 12.8323 4.85535 9.9967 4.85535ZM9.9967 13.3256C8.15336 13.3256 6.65891 11.8319 6.65891 9.99057C6.65891 8.14816 8.15336 6.65557 9.9967 6.65557C11.84 6.65557 13.3323 8.14816 13.3323 9.99057C13.3323 11.8319 11.84 13.3256 9.9967 13.3256Z" fill="#404040"/>
<path d="M15.3378 5.86374C15.9993 5.86374 16.5356 5.32774 16.5356 4.66656C16.5356 4.00537 15.9993 3.46938 15.3378 3.46938C14.6763 3.46938 14.14 4.00537 14.14 4.66656C14.14 5.32774 14.6763 5.86374 15.3378 5.86374Z" fill="#404040"/>
<path d="M19.4789 3.44939C18.9578 2.10673 17.8967 1.04503 16.5534 0.526404C15.7767 0.234327 14.9556 0.0777389 14.1245 0.05997C13.0545 0.0133266 12.7156 0 10.0023 0C7.28891 0 6.94113 -1.15484e-07 5.88002 0.05997C5.05113 0.0766283 4.23001 0.233217 3.45334 0.526404C2.1089 1.04503 1.04778 2.10673 0.527779 3.44939C0.235556 4.22678 0.0788891 5.04637 0.0622224 5.87707C0.0144445 6.94542 0 7.28414 0 9.99723C0 12.7092 -1.11759e-08 13.0546 0.0622224 14.1174C0.0788891 14.9481 0.235556 15.7677 0.527779 16.5462C1.04889 17.8877 2.11001 18.9494 3.45445 19.4692C4.22779 19.7712 5.0489 19.9423 5.88224 19.9689C6.95224 20.0156 7.29113 20.03 10.0045 20.03C12.7178 20.03 13.0656 20.03 14.1267 19.9689C14.9567 19.9523 15.7778 19.7946 16.5556 19.5036C17.8989 18.9827 18.9601 17.9222 19.4812 16.5795C19.7734 15.8021 19.9301 14.9825 19.9467 14.1518C19.9945 13.0835 20.0089 12.7447 20.0089 10.0317C20.0089 7.31857 20.0089 6.9743 19.9467 5.91149C19.9323 5.06969 19.7767 4.23566 19.4789 3.44939ZM18.1256 14.0352C18.1178 14.6749 18.0023 15.309 17.7801 15.9098C17.4412 16.7838 16.7512 17.4746 15.8778 17.81C15.2834 18.031 14.6567 18.1465 14.0223 18.1554C12.9667 18.2042 12.6689 18.2165 9.96225 18.2165C7.25336 18.2165 6.97669 18.2165 5.90113 18.1554C5.2689 18.1476 4.64001 18.031 4.04668 17.81C3.17001 17.4757 2.47556 16.785 2.13667 15.9098C1.9189 15.3168 1.80112 14.6893 1.79112 14.0563C1.74334 13.0013 1.73223 12.7037 1.73223 9.99834C1.73223 7.29192 1.73223 7.01539 1.79112 5.93926C1.79889 5.29958 1.91445 4.66656 2.13667 4.06575C2.47556 3.18952 3.17001 2.49986 4.04668 2.16447C4.64001 1.94458 5.2689 1.82798 5.90113 1.81909C6.9578 1.77134 7.25447 1.75801 9.96225 1.75801C12.67 1.75801 12.9478 1.75801 14.0223 1.81909C14.6567 1.82687 15.2834 1.94347 15.8778 2.16447C16.7512 2.50097 17.4412 3.19174 17.7801 4.06575C17.9978 4.65879 18.1156 5.28625 18.1256 5.91927C18.1734 6.97541 18.1856 7.27193 18.1856 9.97835C18.1856 12.6837 18.1856 12.9746 18.1378 14.0363L18.1256 14.0352Z" fill="#404040"/>
</svg>
