<svg width="23" height="23" viewBox="0 0 23 23" fill="none" xmlns="http://www.w3.org/2000/svg">
<path fill-rule="evenodd" clip-rule="evenodd" d="M15.1682 12.6358C17.3947 9.51156 17.1066 5.14611 14.3036 2.34315C11.1794 -0.781049 6.11407 -0.781048 2.98987 2.34315C-0.13432 5.46734 -0.13432 10.5327 2.98987 13.6569C5.79284 16.4598 10.1583 16.748 13.2826 14.5214L20.9032 22.1421L22.7889 20.2565L15.1682 12.6358ZM12.418 4.22876C14.5008 6.31156 14.5008 9.68844 12.418 11.7712C10.3352 13.854 6.95829 13.854 4.87549 11.7712C2.7927 9.68844 2.7927 6.31156 4.87549 4.22876C6.95829 2.14597 10.3352 2.14597 12.418 4.22876Z" fill="#0277BD"/>
</svg>
