<svg width="19" height="21" viewBox="0 0 19 21" fill="none" xmlns="http://www.w3.org/2000/svg">
<path d="M18.7007 5.26563C17.5023 5.26563 16.3965 4.86859 15.5085 4.19881C14.4901 3.431 13.7584 2.30471 13.5 1.00656C13.436 0.68582 13.4015 0.354824 13.3982 0.015625H9.97467V9.37047L9.97057 14.4946C9.97057 15.8645 9.07848 17.026 7.84186 17.4346C7.48297 17.5531 7.09537 17.6093 6.69178 17.5871C6.17662 17.5588 5.69387 17.4034 5.27428 17.1524C4.38137 16.6183 3.77598 15.6496 3.75957 14.5413C3.73373 12.8092 5.13401 11.3971 6.86487 11.3971C7.20653 11.3971 7.53465 11.4528 7.84186 11.5541V8.99723V8.07807C7.51784 8.03008 7.18807 8.00506 6.85461 8.00506C4.9601 8.00506 3.18822 8.79256 1.92166 10.2113C0.964357 11.2834 0.390138 12.6513 0.301544 14.0856C0.18547 15.9699 0.874943 17.761 2.21205 19.0826C2.40852 19.2766 2.61483 19.4566 2.83057 19.6227C3.97696 20.505 5.37846 20.9832 6.85461 20.9832C7.18807 20.9832 7.51784 20.9586 7.84186 20.9106C9.2208 20.7064 10.4931 20.0751 11.4972 19.0826C12.7309 17.8632 13.4126 16.2443 13.42 14.5212L13.4023 6.86934C13.9909 7.32338 14.6345 7.69908 15.3252 7.9907C16.3994 8.44393 17.5384 8.67361 18.7106 8.6732V6.18725V5.26481C18.7114 5.26563 18.7016 5.26563 18.7007 5.26563Z" fill="#404040"/>
</svg>
