<svg width="22" height="16" viewBox="0 0 22 16" fill="none" xmlns="http://www.w3.org/2000/svg">
<path d="M21.239 2.38637C20.9898 1.45696 20.2586 0.723607 19.3303 0.47338C17.634 0.00759063 10.8475 8.22877e-06 10.8475 8.22877e-06C10.8475 8.22877e-06 4.06213 -0.00757462 2.3647 0.437634C1.45478 0.685694 0.70302 1.43529 0.45171 2.36362C0.00433472 4.05996 1.5871e-06 7.5783 1.5871e-06 7.5783C1.5871e-06 7.5783 -0.00433133 11.114 0.439794 12.793C0.688938 13.7213 1.42012 14.4547 2.34954 14.7049C4.06321 15.1707 10.8313 15.1783 10.8313 15.1783C10.8313 15.1783 17.6177 15.1858 19.3141 14.7417C20.2413 14.4926 20.9757 13.7603 21.2281 12.832C21.6766 11.1367 21.6798 7.61946 21.6798 7.61946C21.6798 7.61946 21.7015 4.08271 21.239 2.38637ZM8.6767 10.8377L8.68212 4.33835L14.3225 7.59346L8.6767 10.8377Z" fill="#404040"/>
</svg>
